<svg width="292" height="200" viewBox="0 0 292 200" fill="none" xmlns="http://www.w3.org/2000/svg">
<g clip-path="url(#clip0_13_617)">
<path d="M172.138 89H30.87C29.5 89 26.8717 88.9272 26.0122 88.5C24 87.5 24 86.5 24 86C24 85.2043 24.5 84 26.0122 83.5C28 83 29.0479 83 30.87 83H172.138C173.959 83.0009 175.704 83.3174 176.991 83.8799C178.277 84.4424 179 85.2049 179 86C179 86.795 178.277 87.5576 176.991 88.1201C175.704 88.6826 173.959 88.9991 172.138 89Z" fill="#82A7A1"/>
<path fill-rule="evenodd" clip-rule="evenodd" d="M27.5901 70H98.5901H101.414H172.414C173.365 69.9991 174.278 69.6826 174.95 69.1201C175.622 68.5576 176 67.7951 176 67C176 66.2049 175.622 65.4424 174.95 64.8799C174.278 64.3174 173.365 64.0009 172.414 64H101.414H98.5901H27.5901C26.6379 64 26.0903 64 25.0515 64.5C24.2613 65 24 66.2043 24 67C24 67.5 24 68.5 25.0515 69.5C25.5007 69.9272 26.8742 70 27.5901 70Z" fill="#82A7A1"/>
<path d="M286.778 181.874C284.781 188.82 278.947 193.683 272.862 197.813C272.013 198.39 271.163 198.953 270.313 199.504C270.307 199.506 270.301 199.512 270.295 199.514C270.254 199.54 270.213 199.567 270.175 199.593C270 199.707 269.824 199.82 269.65 199.932L269.746 199.975C269.746 199.975 269.84 200.025 269.737 199.983C269.706 199.97 269.674 199.959 269.644 199.946C266.109 198.517 262.511 196.983 259.802 194.306C256.992 191.527 255.35 187.167 256.871 183.516C257.071 183.037 257.324 182.583 257.625 182.161C257.748 181.984 257.881 181.814 258.019 181.648C258.859 180.621 259.956 179.837 261.198 179.376C262.44 178.915 263.782 178.794 265.086 179.025C266.39 179.257 267.609 179.832 268.618 180.692C269.627 181.552 270.389 182.666 270.826 183.919C271.273 179.747 267.841 176.253 264.538 173.675C261.234 171.098 257.479 168.291 256.84 164.143C256.483 161.835 257.284 159.598 258.743 157.803C258.788 157.748 258.833 157.694 258.88 157.64C260.656 155.549 263.153 154.206 265.874 153.88C270.941 153.352 275.863 156.04 279.543 159.571C285.468 165.251 289.05 173.977 286.778 181.874Z" fill="#F2F2F2"/>
<path d="M277.255 172.789C278.227 174.305 278.974 175.956 279.471 177.688C279.891 179.236 280.078 180.839 280.026 182.442C279.89 185.742 278.966 188.961 277.331 191.829C276.099 194.004 274.597 196.015 272.862 197.813C272.013 198.39 271.163 198.953 270.313 199.504C270.307 199.506 270.301 199.512 270.295 199.514C270.254 199.54 270.213 199.567 270.175 199.593C270 199.707 269.824 199.82 269.65 199.932C269.65 199.932 269.84 200.025 269.737 199.983C269.706 199.97 269.674 199.959 269.644 199.946C269.961 197.343 269.65 194.701 268.739 192.243C267.827 189.785 266.341 187.581 264.405 185.817C262.464 184.08 260.141 182.827 257.625 182.161C257.748 181.984 257.881 181.814 258.02 181.648C258.991 181.921 259.937 182.28 260.846 182.72C264.094 184.283 266.753 186.853 268.431 190.049C269.936 192.951 270.584 196.223 270.298 199.482C270.444 199.35 270.589 199.215 270.73 199.081C273.416 196.572 275.802 193.691 277.417 190.366C278.818 187.55 279.506 184.432 279.422 181.287C279.29 177.858 277.926 174.681 275.952 171.916C273.789 168.966 271.233 166.326 268.356 164.07C265.456 161.742 262.283 159.779 258.908 158.224C258.832 158.188 258.772 158.125 258.741 158.046C258.711 157.968 258.711 157.881 258.743 157.803C258.766 157.733 258.815 157.674 258.88 157.64C258.913 157.626 258.95 157.619 258.986 157.621C259.023 157.622 259.058 157.632 259.09 157.649C259.507 157.842 259.921 158.037 260.332 158.24C263.751 159.934 266.947 162.047 269.847 164.531C272.648 166.924 275.284 169.658 277.255 172.789Z" fill="white"/>
<path d="M243.48 4.50498e-09H3.44812C2.53386 0.00083429 1.65728 0.365202 1.01081 1.01312C0.364339 1.66104 0.000803089 2.53957 0 3.45585V166.467C0.000802044 167.384 0.364339 168.262 1.01081 168.91C1.65728 169.558 2.53386 169.922 3.44812 169.923H243.48C243.979 169.923 244.471 169.815 244.924 169.606C245.377 169.396 245.779 169.091 246.102 168.711C246.13 168.681 246.155 168.649 246.177 168.615C246.383 168.363 246.55 168.081 246.672 167.779C246.845 167.364 246.934 166.918 246.932 166.467V3.45587C246.931 2.53894 246.567 1.65991 245.92 1.01191C245.273 0.363914 244.395 -4.6755e-05 243.48 4.50498e-09ZM245.948 166.467C245.948 166.95 245.807 167.421 245.54 167.823C245.304 168.176 244.983 168.465 244.607 168.663C244.259 168.843 243.872 168.937 243.48 168.937H3.44812C2.79498 168.936 2.16882 168.675 1.70698 168.212C1.24514 167.75 0.985326 167.122 0.984533 166.467V3.45587C0.985326 2.80129 1.24514 2.17374 1.70698 1.71088C2.16882 1.24802 2.79498 0.987628 3.44812 0.986834H243.48C244.134 0.98675 244.761 1.24672 245.224 1.70966C245.686 2.17259 245.947 2.80064 245.948 3.45587V166.467Z" fill="#3F3D56"/>
<path d="M246.438 13.8508H0.491333V14.8388H246.438V13.8508Z" fill="#3F3D56"/>
<path d="M8.87036 10.3733C10.5036 10.3733 11.8276 9.04638 11.8276 7.40951C11.8276 5.77265 10.5036 4.44571 8.87036 4.44571C7.2371 4.44571 5.91309 5.77265 5.91309 7.40951C5.91309 9.04638 7.2371 10.3733 8.87036 10.3733Z" fill="#82A7A1"/>
<path d="M17.3726 10.3733C19.0058 10.3733 20.3298 9.04638 20.3298 7.40951C20.3298 5.77265 19.0058 4.44571 17.3726 4.44571C15.7393 4.44571 14.4153 5.77265 14.4153 7.40951C14.4153 9.04638 15.7393 10.3733 17.3726 10.3733Z" fill="#82A7A1"/>
<path d="M25.8746 10.3733C27.5079 10.3733 28.8319 9.04638 28.8319 7.40951C28.8319 5.77265 27.5079 4.44571 25.8746 4.44571C24.2414 4.44571 22.9174 5.77265 22.9174 7.40951C22.9174 9.04638 24.2414 10.3733 25.8746 10.3733Z" fill="#82A7A1"/>
<path d="M184.986 89.6525C184.89 89.7484 184.761 89.8022 184.625 89.8022C184.49 89.8022 184.36 89.7484 184.264 89.6525L182.35 87.734C182.307 87.6913 182.249 87.6673 182.189 87.6673C182.129 87.6673 182.071 87.6913 182.028 87.734L180.114 89.6525C180.018 89.7485 179.888 89.8024 179.753 89.8024C179.617 89.8024 179.487 89.7485 179.392 89.6525C179.296 89.5565 179.242 89.4263 179.242 89.2906C179.242 89.1549 179.296 89.0247 179.392 88.9287L181.306 87.0102C181.348 86.9674 181.372 86.9094 181.372 86.8489C181.372 86.7885 181.349 86.7305 181.306 86.6877L179.391 84.7691C179.296 84.6731 179.242 84.5429 179.242 84.4072C179.242 84.2715 179.296 84.1413 179.391 84.0454C179.487 83.9494 179.617 83.8955 179.753 83.8955C179.888 83.8955 180.018 83.9494 180.114 84.0454L182.028 85.964C182.071 86.0067 182.129 86.0307 182.189 86.0307C182.249 86.0307 182.307 86.0067 182.35 85.964L184.264 84.0454C184.36 83.9495 184.49 83.8955 184.625 83.8955C184.761 83.8955 184.89 83.9495 184.986 84.0454C185.082 84.1414 185.136 84.2716 185.136 84.4073C185.136 84.5431 185.082 84.6733 184.986 84.7693L183.072 86.6878C183.029 86.7306 183.005 86.7886 183.005 86.8491C183.005 86.9095 183.029 86.9675 183.072 87.0103L184.986 88.9289C185.082 89.0249 185.136 89.1551 185.136 89.2907C185.136 89.4264 185.082 89.5565 184.986 89.6525Z" fill="#E6E6E6"/>
<path d="M291.604 199.883H140.942C140.837 199.883 140.736 199.841 140.662 199.767C140.588 199.693 140.546 199.592 140.546 199.487C140.546 199.382 140.588 199.281 140.662 199.207C140.736 199.132 140.837 199.091 140.942 199.091H291.604C291.709 199.091 291.81 199.132 291.884 199.207C291.958 199.281 292 199.382 292 199.487C292 199.592 291.958 199.693 291.884 199.767C291.81 199.841 291.709 199.883 291.604 199.883Z" fill="#3F3D56"/>
<path d="M162.391 91.7235C162.889 92.0249 163.446 92.2134 164.024 92.2756C164.602 92.3378 165.186 92.2722 165.736 92.0835C166.286 91.8948 166.788 91.5875 167.207 91.1833C167.626 90.7791 167.951 90.2878 168.16 89.7441L182.283 90.2152L178.446 83.94L165.623 84.4547C164.688 84.1638 163.68 84.2266 162.788 84.6313C161.896 85.036 161.184 85.7544 160.786 86.6503C160.387 87.5463 160.331 88.5576 160.626 89.4927C160.922 90.4277 161.55 91.2214 162.391 91.7235Z" fill="#FFB8B8"/>
<path d="M242.022 122.382C242.406 121.944 242.688 121.427 242.851 120.868C243.013 120.308 243.051 119.72 242.962 119.144C242.873 118.569 242.659 118.019 242.335 117.535C242.011 117.052 241.586 116.645 241.088 116.343L244.024 102.49L237.188 105.177L235.448 117.92C234.998 118.791 234.883 119.798 235.125 120.748C235.366 121.699 235.947 122.528 236.757 123.078C237.568 123.628 238.551 123.861 239.522 123.733C240.492 123.604 241.382 123.124 242.022 122.382Z" fill="#FFB8B8"/>
<path d="M208.938 194.58L204.09 194.579L201.784 175.838L208.939 175.839L208.938 194.58Z" fill="#FFB8B8"/>
<path d="M210.174 199.289L194.542 199.289V199.091C194.542 198.29 194.7 197.497 195.006 196.757C195.311 196.017 195.76 195.345 196.325 194.779C196.89 194.213 197.56 193.763 198.298 193.457C199.037 193.151 199.828 192.993 200.627 192.993L210.175 192.993L210.174 199.289Z" fill="#2F2E41"/>
<path d="M232.665 194.58L227.816 194.579L225.51 175.838L232.665 175.839L232.665 194.58Z" fill="#FFB8B8"/>
<path d="M233.901 199.289L218.269 199.289V199.091C218.269 198.29 218.426 197.497 218.732 196.757C219.038 196.017 219.486 195.345 220.051 194.779C220.616 194.213 221.287 193.763 222.025 193.457C222.763 193.151 223.554 192.993 224.353 192.993L233.901 192.993L233.901 199.289Z" fill="#2F2E41"/>
<path d="M209.443 184.794L202.58 184.518C202.112 184.498 201.671 184.294 201.351 183.951C201.032 183.607 200.86 183.151 200.873 182.682L202.806 119.122L202.933 119.076C214.961 114.715 224.911 115.045 233.352 120.083L233.447 120.139L234.605 182.044C234.61 182.281 234.567 182.517 234.479 182.737C234.392 182.957 234.262 183.158 234.096 183.327C233.93 183.496 233.733 183.631 233.515 183.722C233.297 183.814 233.062 183.861 232.826 183.861H227.039C226.627 183.861 226.228 183.717 225.909 183.454C225.591 183.192 225.373 182.827 225.293 182.422L217.41 142.232C217.382 142.093 217.307 141.969 217.196 141.881C217.085 141.793 216.947 141.747 216.806 141.753C216.665 141.758 216.53 141.813 216.426 141.909C216.322 142.005 216.256 142.135 216.239 142.275L211.281 183.227C211.226 183.658 211.017 184.056 210.692 184.344C210.367 184.633 209.948 184.793 209.513 184.795C209.49 184.795 209.467 184.794 209.443 184.794Z" fill="#2F2E41"/>
<path d="M216.12 63.3813C221.484 63.3813 225.832 59.0233 225.832 53.6474C225.832 48.2715 221.484 43.9135 216.12 43.9135C210.756 43.9135 206.407 48.2715 206.407 53.6474C206.407 59.0233 210.756 63.3813 216.12 63.3813Z" fill="#FFB8B8"/>
<path d="M170.459 89.4233C170.351 89.0768 170.351 88.7056 170.459 88.359L171.465 85.1277C171.575 84.7781 171.789 84.4707 172.079 84.2471C172.369 84.0235 172.72 83.8945 173.085 83.8775L185.828 83.3129L206.5 72.6923C207.218 72.4626 207.974 72.3768 208.725 72.4401C209.476 72.5033 210.207 72.7143 210.876 73.0609C211.546 73.4075 212.14 73.883 212.626 74.4601C213.112 75.0372 213.48 75.7047 213.708 76.4243C213.936 77.1439 214.021 77.9016 213.957 78.654C213.892 79.4064 213.681 80.1387 213.334 80.8091C212.987 81.4795 212.512 82.0748 211.936 82.561C211.359 83.0472 210.693 83.4147 209.974 83.6425L197.305 91.0072C193.46 93.2429 188.936 94.0029 184.574 93.1458L171.815 90.6406C171.57 90.5923 171.338 90.4928 171.133 90.3486C170.929 90.2043 170.757 90.0186 170.629 89.8035C170.558 89.6839 170.501 89.5563 170.459 89.4233Z" fill="#CCCCCC"/>
<path d="M241.608 113.413C241.267 113.536 240.897 113.553 240.547 113.459L237.282 112.589C236.929 112.494 236.614 112.293 236.379 112.012C236.143 111.732 236 111.386 235.967 111.02L234.861 98.2857L223.393 78.0385C223.133 77.3297 223.016 76.5765 223.047 75.8221C223.078 75.0677 223.257 74.3268 223.574 73.6418C223.891 72.9569 224.34 72.3413 224.894 71.8302C225.449 71.3191 226.099 70.9227 226.806 70.6634C227.514 70.4042 228.266 70.2873 229.018 70.3194C229.771 70.3515 230.51 70.532 231.193 70.8506C231.876 71.1692 232.49 71.6196 232.999 72.176C233.508 72.7325 233.903 73.3841 234.161 74.0935L242.043 86.4653C244.435 90.2199 245.386 94.7176 244.717 99.1219L242.763 112.004C242.726 112.252 242.636 112.488 242.501 112.699C242.366 112.91 242.188 113.09 241.979 113.227C241.863 113.304 241.738 113.366 241.608 113.413Z" fill="#CCCCCC"/>
<path d="M205.496 70.9335C207.165 69.1 209.222 67.6653 211.518 66.7352C213.813 65.8051 216.287 65.4034 218.758 65.5597C218.921 65.5697 219.082 65.5811 219.243 65.5937C221.585 65.7793 223.861 66.4638 225.918 67.6015C227.974 68.7393 229.765 70.3039 231.17 72.1909C232.598 74.1043 233.603 76.3013 234.116 78.6349C234.629 80.9685 234.639 83.385 234.146 85.7229C232.262 94.6574 232.739 103.93 235.528 112.623L238.134 120.731C238.217 120.991 238.24 121.267 238.201 121.537C238.161 121.807 238.06 122.064 237.906 122.289C237.752 122.514 237.548 122.7 237.31 122.834C237.072 122.967 236.807 123.044 236.535 123.058L223.215 123.776L219.806 117.875V123.96L203.617 124.832C203.584 124.834 203.552 124.835 203.52 124.835C203.275 124.835 203.032 124.784 202.807 124.685C202.582 124.586 202.38 124.442 202.213 124.261C202.046 124.08 201.919 123.866 201.839 123.633C201.759 123.4 201.728 123.154 201.747 122.908L203.577 100.167L201.282 84.7216C200.91 82.2538 201.096 79.7339 201.826 77.3476C202.555 74.9613 203.809 72.7694 205.496 70.9335Z" fill="#CCCCCC"/>
<path d="M222.87 62.9398C221.97 63.4583 218.416 63.8021 218.163 62.7938L218.157 62.7716C217.981 62.0329 218.128 61.2614 218.178 60.5035C218.229 59.7456 218.155 58.913 217.64 58.3557C216.68 57.317 214.971 57.8676 213.583 57.605C212.77 57.423 212.051 56.9504 211.56 56.2754C211.069 55.6004 210.841 54.7694 210.918 53.9379C210.938 53.7804 210.969 53.6227 211.003 53.4651C211.09 53.0657 211.083 52.6516 210.984 52.2553C210.884 51.859 210.694 51.4912 210.429 51.1809C210.163 50.8706 209.83 50.6261 209.454 50.4668C209.079 50.3074 208.671 50.2374 208.264 50.2623C206.861 50.3427 205.347 50.7688 204.186 49.7273C203.288 48.9219 203.069 46.8253 203.463 45.6843C204.126 43.7669 208.372 42.763 210.226 42.2112C212.519 41.5472 214.931 41.4037 217.286 41.791C219.641 42.1783 221.88 43.0867 223.841 44.4502C225.012 45.2774 226.106 46.3167 226.605 47.6626C227.104 49.0084 226.863 50.7064 225.738 51.5948C226.61 52.5205 227.225 53.6597 227.519 54.8982C227.814 56.1368 227.779 57.4312 227.417 58.6518C226.861 60.4468 224.208 62.1679 222.87 62.9398Z" fill="#2F2E41"/>
</g>
<defs>
<clipPath id="clip0_13_617">
<rect width="292" height="200" fill="white"/>
</clipPath>
</defs>
</svg>
